<?xml version="1.1" encoding="UTF-8"?>
<svg version="1.1" xmlns="http://www.w3.org/2000/svg" width="300" height="200">
<path d="M0 0 C9.24 0 18.48 0 28 0 C28.02290896 5.10869811 28.04283601 10.21721926 28.05493164 15.32592773 C28.05997204 17.06519168 28.0668043 18.80445136 28.07543945 20.54370117 C28.08751792 23.03825937 28.09323108 25.53276173 28.09765625 28.02734375 C28.10281754 28.80963852 28.10797882 29.59193329 28.11329651 30.39793396 C28.11349226 32.26567114 28.06199694 34.13329204 28 36 C26.22550406 37.77449594 23.64982739 37.13030072 21.25 37.1328125 C20.0846875 37.13410156 18.919375 37.13539063 17.71875 37.13671875 C16.4915625 37.13285156 15.264375 37.12898438 14 37.125 C12.15921875 37.13080078 12.15921875 37.13080078 10.28125 37.13671875 C9.1159375 37.13542969 7.950625 37.13414062 6.75 37.1328125 C5.67234375 37.13168457 4.5946875 37.13055664 3.484375 37.12939453 C1 37 1 37 0 36 C-0.08855161 33.3337397 -0.11524673 30.69352886 -0.09765625 28.02734375 C-0.0962413 27.22970108 -0.09482635 26.43205841 -0.09336853 25.61024475 C-0.08775316 23.05262565 -0.07519812 20.49509282 -0.0625 17.9375 C-0.05748698 16.20768355 -0.05292373 14.47786574 -0.04882812 12.74804688 C-0.03862791 8.49863761 -0.01905568 4.24941584 0 0 Z " fill="#FCFCFC" transform="translate(236,153)"/>
<path d="M0 0 C9.24 0 18.48 0 28 0 C28 11.88 28 23.76 28 36 C25.35171821 37.3241409 23.33319888 37.12957042 20.37109375 37.1328125 C18.69563477 37.13474609 18.69563477 37.13474609 16.98632812 37.13671875 C15.81521484 37.13285156 14.64410156 37.12898438 13.4375 37.125 C12.26251953 37.12886719 11.08753906 37.13273437 9.87695312 37.13671875 C8.20342773 37.13478516 8.20342773 37.13478516 6.49609375 37.1328125 C5.46669678 37.13168457 4.4372998 37.13055664 3.37670898 37.12939453 C1 37 1 37 0 36 C-0.08855161 33.3337397 -0.11524673 30.69352886 -0.09765625 28.02734375 C-0.0962413 27.22970108 -0.09482635 26.43205841 -0.09336853 25.61024475 C-0.08775316 23.05262565 -0.07519812 20.49509282 -0.0625 17.9375 C-0.05748698 16.20768355 -0.05292373 14.47786574 -0.04882812 12.74804688 C-0.03862791 8.49863761 -0.01905568 4.24941584 0 0 Z " fill="#F9F9FA" transform="translate(206,153)"/>
<path d="M0 0 C6.93 0 13.86 0 21 0 C21 1.32 21 2.64 21 4 C19.35 4 17.7 4 16 4 C16 17.2 16 30.4 16 44 C17.65 44 19.3 44 21 44 C21 45.32 21 46.64 21 48 C14.07 48 7.14 48 0 48 C0 46.68 0 45.36 0 44 C1.65 44 3.3 44 5 44 C5 30.8 5 17.6 5 4 C3.35 4 1.7 4 0 4 C0 2.68 0 1.36 0 0 Z " fill="#474344" transform="translate(17,141)"/>
<path d="M0 0 C5.0428125 -0.0928125 5.0428125 -0.0928125 10.1875 -0.1875 C11.76374146 -0.22846802 11.76374146 -0.22846802 13.37182617 -0.27026367 C22.08459005 -0.34795924 22.08459005 -0.34795924 26 3 C27.16983345 5.3396669 27.1661241 6.83391527 27.1875 9.4375 C27.20167969 10.21996094 27.21585938 11.00242188 27.23046875 11.80859375 C27 14 27 14 25 17 C25.4846875 17.55816406 25.969375 18.11632812 26.46875 18.69140625 C28.22718525 21.34251654 28.46115914 22.78653557 28.5 25.9375 C28.5309375 26.77152344 28.561875 27.60554688 28.59375 28.46484375 C27.66656218 32.42369176 26.36088531 33.69118232 23 36 C19.03875616 36.60620519 15.18267081 36.46992182 11.1875 36.3125 C7.495625 36.209375 3.80375 36.10625 0 36 C0 24.12 0 12.24 0 0 Z M5 5 C5 8.3 5 11.6 5 15 C10.28 15 15.56 15 21 15 C22.38125018 12.23749964 22.19079306 10.05268901 22 7 C20.06029948 4.61607883 20.06029948 4.61607883 16.5234375 4.8046875 C15.14049032 4.81798507 13.75761346 4.84183768 12.375 4.875 C11.66859375 4.88402344 10.9621875 4.89304688 10.234375 4.90234375 C8.48943902 4.92592397 6.74467705 4.96179539 5 5 Z M5 20 C5 23.63 5 27.26 5 31 C10.61 31 16.22 31 22 31 C23.38550197 28.22899606 23.1877467 26.0665294 23 23 C22.34 22.01 21.68 21.02 21 20 C18.2114711 19.77892213 15.65346819 19.71892465 12.875 19.8125 C12.12089844 19.82603516 11.36679688 19.83957031 10.58984375 19.85351562 C8.72625873 19.88890015 6.86304022 19.94270833 5 20 Z " fill="#494547" transform="translate(175,153)"/>
<path d="M0 0 C6 0 6 0 7.70336914 1.6171875 C8.14285889 2.36226562 8.58234863 3.10734375 9.03515625 3.875 C9.53466797 4.69613281 10.03417969 5.51726562 10.54882812 6.36328125 C11.04833984 7.23339844 11.54785156 8.10351562 12.0625 9 C12.56587891 9.83917969 13.06925781 10.67835938 13.58789062 11.54296875 C14.5439989 13.13854401 15.49120732 14.7395149 16.42602539 16.34765625 C18.55540557 19.93592773 20.78856698 23.46170717 23 27 C23.33 18.09 23.66 9.18 24 0 C26.475 0.495 26.475 0.495 29 1 C29 12.22 29 23.44 29 35 C26.36 35 23.72 35 21 35 C18.71484375 32.70507812 18.71484375 32.70507812 16.9375 29.53125 C16.28652344 28.40332031 15.63554688 27.27539062 14.96484375 26.11328125 C14.30923985 24.90921111 13.65430016 23.7047791 13 22.5 C12.31655193 21.2940104 11.63038052 20.08955982 10.94140625 18.88671875 C9.26742416 15.93956718 7.63014708 12.97162227 6 10 C5.67 18.25 5.34 26.5 5 35 C3.35 35 1.7 35 0 35 C0 23.45 0 11.9 0 0 Z M4 7 C5 9 5 9 5 9 Z " fill="#009DD8" transform="translate(51,154)"/>
<path d="M0 0 C1.7634375 -0.01160156 1.7634375 -0.01160156 3.5625 -0.0234375 C7.3818137 0.41925568 9.77153773 1.30090069 13 3.375 C15.93460312 7.97874079 15.40649619 12.9655724 15.4375 18.25 C15.48680664 19.72146484 15.48680664 19.72146484 15.53710938 21.22265625 C15.59718045 29.31586838 15.59718045 29.31586838 12.66015625 33.0078125 C8.59109243 36.62874153 5.41433156 36.55790489 0.125 36.625 C-1.08929688 36.65078125 -2.30359375 36.6765625 -3.5546875 36.703125 C-8.22050533 36.2587614 -10.73536633 34.63963367 -14 31.375 C-15.45351244 26.99482842 -15.18403984 22.50145597 -15.1875 17.9375 C-15.19974609 17.09123047 -15.21199219 16.24496094 -15.22460938 15.37304688 C-15.24471199 6.81603414 -15.24471199 6.81603414 -13 3.375 C-8.67306527 0.49456962 -5.13811109 -0.03380336 0 0 Z M-9 7.375 C-11.09057951 14.34762646 -11.20291603 23.79122815 -8 30.375 C-5.31432703 31.71783649 -3.12253147 31.61787519 -0.125 31.6875 C0.92429687 31.72488281 1.97359375 31.76226562 3.0546875 31.80078125 C6.03470071 31.57026809 6.03470071 31.57026809 8.3515625 29.91796875 C10.80007592 26.14075966 10.58450712 22.78345469 10.5 18.375 C10.51546875 17.56804687 10.5309375 16.76109375 10.546875 15.9296875 C10.52228397 12.20414677 10.41059619 10.00593977 8.34765625 6.8359375 C5.35430236 4.97318483 3.44466494 4.90438956 -0.0625 5 C-1.10535156 5.01289063 -2.14820312 5.02578125 -3.22265625 5.0390625 C-6.20862147 5.1885228 -6.20862147 5.1885228 -9 7.375 Z " fill="#00A6E3" transform="translate(100,153.625)"/>
<path d="M0 0 C1.00023193 0.00523682 2.00046387 0.01047363 3.03100586 0.01586914 C4.1105957 0.0190918 5.19018555 0.02231445 6.30249023 0.02563477 C8.00695312 0.03820312 8.00695312 0.03820312 9.74584961 0.05102539 C11.45611328 0.05779297 11.45611328 0.05779297 13.20092773 0.06469727 C16.02845312 0.07652792 18.85587601 0.09301129 21.68334961 0.11352539 C21.68334961 1.76352539 21.68334961 3.41352539 21.68334961 5.11352539 C15.41334961 5.11352539 9.14334961 5.11352539 2.68334961 5.11352539 C2.68334961 8.41352539 2.68334961 11.71352539 2.68334961 15.11352539 C8.95334961 15.11352539 15.22334961 15.11352539 21.68334961 15.11352539 C21.68334961 16.76352539 21.68334961 18.41352539 21.68334961 20.11352539 C15.41334961 20.11352539 9.14334961 20.11352539 2.68334961 20.11352539 C2.68334961 23.41352539 2.68334961 26.71352539 2.68334961 30.11352539 C8.95334961 30.11352539 15.22334961 30.11352539 21.68334961 30.11352539 C21.68334961 31.76352539 21.68334961 33.41352539 21.68334961 35.11352539 C13.43334961 35.11352539 5.18334961 35.11352539 -3.31665039 35.11352539 C-3.33956059 30.28965472 -3.35948725 25.4659715 -3.37158203 20.64208984 C-3.37662213 18.99983075 -3.38345417 17.35757616 -3.39208984 15.71533203 C-3.40416965 13.3597706 -3.40988178 11.0042683 -3.41430664 8.64868164 C-3.41946793 7.91013443 -3.42462921 7.17158722 -3.4299469 6.41065979 C-3.43014289 4.64454451 -3.37859758 2.87855393 -3.31665039 1.11352539 C-2.31665039 0.11352539 -2.31665039 0.11352539 0 0 Z " fill="#009CD5" transform="translate(147.316650390625,153.886474609375)"/>
<path d="M0 0 C1.65 0 3.3 0 5 0 C5 4.95 5 9.9 5 15 C9.27455816 11.33609301 13.30568351 7.698864 17.125 3.5625 C20.53325871 0.06667733 20.53325871 0.06667733 24.5 -0.5 C25.325 -0.335 26.15 -0.17 27 0 C22.60502098 6.32532275 17.54949524 11.67248457 12 17 C16.188439 22.09404743 20.67614119 26.75440073 25.3918457 31.35473633 C26.6116758 32.55264448 27.80816585 33.77423462 29 35 C29 35.33 29 35.66 29 36 C25.29864889 36.57128506 23.16485615 36.82970865 20.04833984 34.60986328 C18.00848525 32.66126129 16.08743563 30.64770298 14.1875 28.5625 C12.87023178 27.16632296 11.55130144 25.77171166 10.23046875 24.37890625 C9.37038208 23.44413452 9.37038208 23.44413452 8.49291992 22.49047852 C7.05073921 20.89393156 7.05073921 20.89393156 5 20 C5 25.28 5 30.56 5 36 C3.02 36 1.04 36 -1 36 C-1.02465098 31.03377651 -1.04283649 26.06758834 -1.05493164 21.10131836 C-1.0599719 19.41055684 -1.06680405 17.71979971 -1.07543945 16.02905273 C-1.08751857 13.60399293 -1.09323123 11.17899056 -1.09765625 8.75390625 C-1.10281754 7.99348526 -1.10797882 7.23306427 -1.11329651 6.44960022 C-1.11349238 4.6326743 -1.06197277 2.81586873 -1 1 C-0.67 0.67 -0.34 0.34 0 0 Z " fill="#333031" transform="translate(271,153)"/>
<path d="M0 0 C9.24 0 18.48 0 28 0 C28.02290896 5.10869811 28.04283601 10.21721926 28.05493164 15.32592773 C28.05997204 17.06519168 28.0668043 18.80445136 28.07543945 20.54370117 C28.08751792 23.03825937 28.09323108 25.53276173 28.09765625 28.02734375 C28.10281754 28.80963852 28.10797882 29.59193329 28.11329651 30.39793396 C28.11349226 32.26567114 28.06199694 34.13329204 28 36 C26.22550406 37.77449594 23.64982739 37.13030072 21.25 37.1328125 C20.0846875 37.13410156 18.919375 37.13539063 17.71875 37.13671875 C16.4915625 37.13285156 15.264375 37.12898438 14 37.125 C12.15921875 37.13080078 12.15921875 37.13080078 10.28125 37.13671875 C9.1159375 37.13542969 7.950625 37.13414062 6.75 37.1328125 C5.67234375 37.13168457 4.5946875 37.13055664 3.484375 37.12939453 C1 37 1 37 0 36 C-0.08855161 33.3337397 -0.11524673 30.69352886 -0.09765625 28.02734375 C-0.0962413 27.22970108 -0.09482635 26.43205841 -0.09336853 25.61024475 C-0.08775316 23.05262565 -0.07519812 20.49509282 -0.0625 17.9375 C-0.05748698 16.20768355 -0.05292373 14.47786574 -0.04882812 12.74804688 C-0.03862791 8.49863761 -0.01905568 4.24941584 0 0 Z M4 4 C4 13.57 4 23.14 4 33 C10.6 33 17.2 33 24 33 C24 23.43 24 13.86 24 4 C17.4 4 10.8 4 4 4 Z " fill="#6F6C6D" transform="translate(236,153)"/>
<path d="M0 0 C9.24 0 18.48 0 28 0 C28 11.88 28 23.76 28 36 C25.35171821 37.3241409 23.33319888 37.12957042 20.37109375 37.1328125 C18.69563477 37.13474609 18.69563477 37.13474609 16.98632812 37.13671875 C15.81521484 37.13285156 14.64410156 37.12898438 13.4375 37.125 C12.26251953 37.12886719 11.08753906 37.13273437 9.87695312 37.13671875 C8.20342773 37.13478516 8.20342773 37.13478516 6.49609375 37.1328125 C5.46669678 37.13168457 4.4372998 37.13055664 3.37670898 37.12939453 C1 37 1 37 0 36 C-0.08855161 33.3337397 -0.11524673 30.69352886 -0.09765625 28.02734375 C-0.0962413 27.22970108 -0.09482635 26.43205841 -0.09336853 25.61024475 C-0.08775316 23.05262565 -0.07519812 20.49509282 -0.0625 17.9375 C-0.05748698 16.20768355 -0.05292373 14.47786574 -0.04882812 12.74804688 C-0.03862791 8.49863761 -0.01905568 4.24941584 0 0 Z M4 4 C4 13.57 4 23.14 4 33 C10.6 33 17.2 33 24 33 C24 23.43 24 13.86 24 4 C17.4 4 10.8 4 4 4 Z " fill="#A6A4A5" transform="translate(206,153)"/>
<path d="M0 0 C8.58 0 17.16 0 26 0 C26 1.65 26 3.3 26 5 C22.7 5 19.4 5 16 5 C16 14.9 16 24.8 16 35 C14.35 35 12.7 35 11 35 C11 25.1 11 15.2 11 5 C7.37 5 3.74 5 0 5 C0 3.35 0 1.7 0 0 Z " fill="#00A2DE" transform="translate(116,154)"/>
<path d="M0 0 C6.27 0 12.54 0 19 0 C19 0.66 19 1.32 19 2 C15.7 2 12.4 2 9 2 C9 3.65 9 5.3 9 7 C12.3 7.33 15.6 7.66 19 8 C19 8.33 19 8.66 19 9 C16.69 9 14.38 9 12 9 C12 10.65 12 12.3 12 14 C8.37 14 4.74 14 1 14 C1.33 16.64 1.66 19.28 2 22 C7.61 22 13.22 22 19 22 C19 22.33 19 22.66 19 23 C15.7 23 12.4 23 9 23 C9 24.65 9 26.3 9 28 C12.63 28 16.26 28 20 28 C20 28.33 20 28.66 20 29 C13.4 29 6.8 29 0 29 C0 19.43 0 9.86 0 0 Z " fill="#F0F0F1" transform="translate(240,157)"/>
<path d="M0 0 C3.3 0 6.6 0 10 0 C10 8.58 10 17.16 10 26 C6.37 26 2.74 26 -1 26 C-1 21 -1 21 0 20 C-0.0309375 18.700625 -0.0309375 18.700625 -0.0625 17.375 C0.00900908 13.51350948 0.8279913 10.66252718 2 7 C4.31 7 6.62 7 9 7 C9 6.34 9 5.68 9 5 C6.03 5 3.06 5 0 5 C0 3.35 0 1.7 0 0 Z " fill="#FDFDFD" transform="translate(219,159)"/>
<path d="M0 0 C2.35709642 3.53564463 2.30009735 5.22025255 2.4140625 9.41796875 C2.45273438 10.67158203 2.49140625 11.92519531 2.53125 13.21679688 C2.5621875 14.52712891 2.593125 15.83746094 2.625 17.1875 C2.66319338 18.5228116 2.70224591 19.85809892 2.7421875 21.19335938 C2.83658885 24.46200611 2.91938832 27.73098412 3 31 C9.6 31.33 16.2 31.66 23 32 C23 22.1 23 12.2 23 2 C16.4 2 9.8 2 3 2 C3 1.67 3 1.34 3 1 C10.26 1 17.52 1 25 1 C25 11.89 25 22.78 25 34 C16.75 34 8.5 34 0 34 C0 22.78 0 11.56 0 0 Z " fill="#241E20" transform="translate(207,154)"/>
<path d="M0 0 C1.00023193 0.00523682 2.00046387 0.01047363 3.03100586 0.01586914 C4.1105957 0.0190918 5.19018555 0.02231445 6.30249023 0.02563477 C8.00695312 0.03820312 8.00695312 0.03820312 9.74584961 0.05102539 C11.45611328 0.05779297 11.45611328 0.05779297 13.20092773 0.06469727 C16.02845312 0.07652792 18.85587601 0.09301129 21.68334961 0.11352539 C21.68334961 1.76352539 21.68334961 3.41352539 21.68334961 5.11352539 C15.08334961 5.11352539 8.48334961 5.11352539 1.68334961 5.11352539 C1.68334961 4.78352539 1.68334961 4.45352539 1.68334961 4.11352539 C7.95334961 4.11352539 14.22334961 4.11352539 20.68334961 4.11352539 C20.68334961 3.45352539 20.68334961 2.79352539 20.68334961 2.11352539 C13.42334961 2.11352539 6.16334961 2.11352539 -1.31665039 2.11352539 C-1.31665039 12.67352539 -1.31665039 23.23352539 -1.31665039 34.11352539 C-2.30665039 34.60852539 -2.30665039 34.60852539 -3.31665039 35.11352539 C-3.34130229 30.28971737 -3.35948732 25.46594572 -3.37158203 20.64208984 C-3.37662213 18.99983075 -3.38345417 17.35757616 -3.39208984 15.71533203 C-3.40416965 13.3597706 -3.40988178 11.0042683 -3.41430664 8.64868164 C-3.41946793 7.91013443 -3.42462921 7.17158722 -3.4299469 6.41065979 C-3.43014289 4.64454451 -3.37859758 2.87855393 -3.31665039 1.11352539 C-2.31665039 0.11352539 -2.31665039 0.11352539 0 0 Z " fill="#006B92" transform="translate(147.316650390625,153.886474609375)"/>
<path d="M0 0 C8.58 0 17.16 0 26 0 C25.67 0.99 25.34 1.98 25 3 C24.84929203 5.13661258 24.7514034 7.27712124 24.68359375 9.41796875 C24.64169922 10.67158203 24.59980469 11.92519531 24.55664062 13.21679688 C24.51732422 14.52712891 24.47800781 15.83746094 24.4375 17.1875 C24.39429008 18.52279978 24.350675 19.85808652 24.30664062 21.19335938 C24.20043498 24.46213297 24.09839003 27.73098333 24 31 C23.67 31 23.34 31 23 31 C23 21.76 23 12.52 23 3 C16.4629715 3.03958259 16.4629715 3.03958259 9.92602539 3.09008789 C9.11641357 3.09258545 8.30680176 3.09508301 7.47265625 3.09765625 C6.22367554 3.10551147 6.22367554 3.10551147 4.94946289 3.11352539 C3 3 3 3 2 2 C1.67 12.56 1.34 23.12 1 34 C0.67 34 0.34 34 0 34 C0 22.78 0 11.56 0 0 Z " fill="#605E5F" transform="translate(237,154)"/>
<path d="M0 0 C8.25 0 16.5 0 25 0 C25 11.22 25 22.44 25 34 C24.67 34 24.34 34 24 34 C24 23.11 24 12.22 24 1 C23.34 1.66 22.68 2.32 22 3 C19.93701172 3.22705078 19.93701172 3.22705078 17.4296875 3.1953125 C16.21901611 3.18781982 16.21901611 3.18781982 14.98388672 3.18017578 C13.44498779 3.15286377 13.44498779 3.15286377 11.875 3.125 C6.986875 3.063125 6.986875 3.063125 2 3 C2 12.24 2 21.48 2 31 C1.67 31 1.34 31 1 31 C0.67 20.77 0.34 10.54 0 0 Z " fill="#727172" transform="translate(208,154)"/>
<path d="M0 0 C0.33 0 0.66 0 1 0 C1 9.57 1 19.14 1 29 C-5.6 29 -12.2 29 -19 29 C-18.67 26.69 -18.34 24.38 -18 22 C-12.39 22 -6.78 22 -1 22 C-1 22.33 -1 22.66 -1 23 C-4.3 23 -7.6 23 -11 23 C-11 24.65 -11 26.3 -11 28 C-7.37 28 -3.74 28 0 28 C0 18.76 0 9.52 0 0 Z " fill="#C8C8C9" transform="translate(229,157)"/>
<path d="M0 0 C0.66 0.66 1.32 1.32 2 2 C1.625 4.625 1.625 4.625 1 7 C-0.65 7.33 -2.3 7.66 -4 8 C-1.03 8.495 -1.03 8.495 2 9 C1.01 10.485 1.01 10.485 0 12 C-3.5 12.3125 -3.5 12.3125 -7 12 C-9.32528287 9.67471713 -9.29511025 9.15334102 -9.3125 6 C-9.32925781 5.29875 -9.34601562 4.5975 -9.36328125 3.875 C-9.24339844 3.25625 -9.12351562 2.6375 -9 2 C-5.54754176 -0.30163882 -4.05261287 -0.34490322 0 0 Z M-5 2 C-5 2.66 -5 3.32 -5 4 C-4.34 4 -3.68 4 -3 4 C-3 3.34 -3 2.68 -3 2 C-3.66 2 -4.32 2 -5 2 Z " fill="#DF7A2F" transform="translate(14,135)"/>
<path d="M0 0 C1.32 0.33 2.64 0.66 4 1 C4 2.65 4 4.3 4 6 C2.35 6.33 0.7 6.66 -1 7 C-1.33 7.99 -1.66 8.98 -2 10 C-2.99 10.495 -2.99 10.495 -4 11 C-3.34 11 -2.68 11 -2 11 C-2.33 11.99 -2.66 12.98 -3 14 C-5.375 14.125 -5.375 14.125 -8 14 C-10 12 -10 12 -10.25 9 C-10 6 -10 6 -8 4 C-7.195625 4.04125 -6.39125 4.0825 -5.5625 4.125 C-4.2940625 4.063125 -4.2940625 4.063125 -3 4 C-1.15684329 2.0995533 -1.15684329 2.0995533 0 0 Z M-7 6 C-7 6.66 -7 7.32 -7 8 C-6.34 8 -5.68 8 -5 8 C-5 7.34 -5 6.68 -5 6 C-5.66 6 -6.32 6 -7 6 Z " fill="#C4D15E" transform="translate(49,119)"/>
<path d="M0 0 C2 0.6875 2 0.6875 4 2.6875 C4 4.0075 4 5.3275 4 6.6875 C2.02 7.0175 0.04 7.3475 -2 7.6875 C-2 8.0175 -2 8.3475 -2 8.6875 C0.97 9.1825 0.97 9.1825 4 9.6875 C3.01 11.1725 3.01 11.1725 2 12.6875 C-1.1305429 13.08714378 -3.13083761 13.20899743 -5.875 11.5625 C-7.52854531 8.80659116 -7.39365568 6.83674548 -7 3.6875 C-5.08093357 1.15782152 -3.28793733 -0.51374021 0 0 Z M-3 2.6875 C-3 3.3475 -3 4.0075 -3 4.6875 C-2.01 4.6875 -1.02 4.6875 0 4.6875 C0 4.0275 0 3.3675 0 2.6875 C-0.99 2.6875 -1.98 2.6875 -3 2.6875 Z " fill="#DD782F" transform="translate(47,134.3125)"/>
<path d="M0 0 C0.99 0.33 1.98 0.66 3 1 C3 1.99 3 2.98 3 4 C3.78375 3.95875 4.5675 3.9175 5.375 3.875 C8 4 8 4 10 6 C10 7.32 10 8.64 10 10 C8.68 10.33 7.36 10.66 6 11 C7.32 11 8.64 11 10 11 C10 11.99 10 12.98 10 14 C6.625 14.125 6.625 14.125 3 14 C1 12 1 12 0.875 9.375 C0.91625 8.59125 0.9575 7.8075 1 7 C0.01 6.67 -0.98 6.34 -2 6 C-2 4.35 -2 2.7 -2 1 C-1.34 0.67 -0.68 0.34 0 0 Z M5 6 C5 6.66 5 7.32 5 8 C5.66 7.67 6.32 7.34 7 7 C6.34 6.67 5.68 6.34 5 6 Z " fill="#DC2F33" transform="translate(7,119)"/>
<path d="M0 0 C2.625 0.375 2.625 0.375 5 1 C5.33 1.99 5.66 2.98 6 4 C7.65 4 9.3 4 11 4 C11.82638376 6.89234315 12 8.88742431 12 12 C10.35 12.33 8.7 12.66 7 13 C4 9.25 4 9.25 4 7 C2.35 7 0.7 7 -1 7 C-1.625 4.625 -1.625 4.625 -2 2 C-1.34 1.34 -0.68 0.68 0 0 Z " fill="#A4B04F" transform="translate(15,115)"/>
<path d="M0 0 C0.042721 1.66611905 0.04063832 3.33382885 0 5 C-0.33 5.33 -0.66 5.66 -1 6 C-1.7425 5.979375 -2.485 5.95875 -3.25 5.9375 C-6.26690812 6.00606609 -8.27588278 6.75468927 -11 8 C-9.68 8 -8.36 8 -7 8 C-7.33 8.99 -7.66 9.98 -8 11 C-9.875 11.8125 -9.875 11.8125 -12 12 C-12.99 11.34 -13.98 10.68 -15 10 C-15.1875 6.875 -15.1875 6.875 -15 4 C-11.535 3.505 -11.535 3.505 -8 3 C-7.67 2.01 -7.34 1.02 -7 0 C-4.3333581 -1.33332095 -2.83319697 -0.67102033 0 0 Z " fill="#CD702B" transform="translate(44,116)"/>
<path d="M0 0 C0.763125 0.20625 1.52625 0.4125 2.3125 0.625 C2.6425 2.275 2.9725 3.925 3.3125 5.625 C1.3325 6.285 -0.6475 6.945 -2.6875 7.625 C-0.7075 7.625 1.2725 7.625 3.3125 7.625 C2.9825 8.615 2.6525 9.605 2.3125 10.625 C-1.0625 10.8125 -1.0625 10.8125 -4.6875 10.625 C-6.6875 7.625 -6.6875 7.625 -6.5 4.5625 C-5.41880569 0.65356673 -4.1113564 -0.57367764 0 0 Z " fill="#44ABCD" transform="translate(23.6875,129.375)"/>
<path d="M0 0 C0.94875 0.04125 1.8975 0.0825 2.875 0.125 C3.535 1.775 4.195 3.425 4.875 5.125 C3.225 5.785 1.575 6.445 -0.125 7.125 C1.195 7.125 2.515 7.125 3.875 7.125 C3.875 8.115 3.875 9.105 3.875 10.125 C0.5 10.25 0.5 10.25 -3.125 10.125 C-5.125 8.125 -5.125 8.125 -5.375 5.125 C-5.02345647 0.90647769 -4.22997422 0.16919897 0 0 Z " fill="#CC3134" transform="translate(34.125,129.875)"/>
<path d="M0 0 C5.61 0 11.22 0 17 0 C17 0.33 17 0.66 17 1 C13.7 1 10.4 1 7 1 C7 2.65 7 4.3 7 6 C10.63 6 14.26 6 18 6 C18 6.33 18 6.66 18 7 C11.4 7 4.8 7 -2 7 C-1.34 6.67 -0.68 6.34 0 6 C0 4.02 0 2.04 0 0 Z " fill="#C1C1C3" transform="translate(242,179)"/>
<path d="M0 0 C0.33 0 0.66 0 1 0 C1 2.64 1 5.28 1 8 C-2.96 8 -6.92 8 -11 8 C-10.67 6.02 -10.34 4.04 -10 2 C-6.7 2 -3.4 2 0 2 C0 1.34 0 0.68 0 0 Z " fill="#FCFCFD" transform="translate(259,157)"/>
<path d="M0 0 C5.61 0 11.22 0 17 0 C17 0.33 17 0.66 17 1 C14.69 1 12.38 1 10 1 C10 2.65 10 4.3 10 6 C6.7 6 3.4 6 0 6 C0 4.02 0 2.04 0 0 Z " fill="#D6D7D9" transform="translate(242,165)"/>
<path d="M0 0 C5.61 0 11.22 0 17 0 C17 0.33 17 0.66 17 1 C14.69 1 12.38 1 10 1 C10 2.65 10 4.3 10 6 C6.7 6 3.4 6 0 6 C0 4.02 0 2.04 0 0 Z " fill="#D6D7D8" transform="translate(211,165)"/>
<path d="M0 0 C5.61 0 11.22 0 17 0 C17 0.33 17 0.66 17 1 C14.03 1 11.06 1 8 1 C8 2.65 8 4.3 8 6 C5.36 6 2.72 6 0 6 C0 4.02 0 2.04 0 0 Z " fill="#D5D6D7" transform="translate(242,172)"/>
<path d="M0 0 C5.61 0 11.22 0 17 0 C17 0.33 17 0.66 17 1 C14.03 1 11.06 1 8 1 C8 2.65 8 4.3 8 6 C5.36 6 2.72 6 0 6 C0 4.02 0 2.04 0 0 Z " fill="#D5D6D7" transform="translate(211,172)"/>
<path d="M0 0 C5.61 0 11.22 0 17 0 C17 0.33 17 0.66 17 1 C13.7 1 10.4 1 7 1 C7 2.65 7 4.3 7 6 C4.69 6 2.38 6 0 6 C0 4.02 0 2.04 0 0 Z " fill="#D6D7D8" transform="translate(242,158)"/>
<path d="M0 0 C5.61 0 11.22 0 17 0 C17 0.33 17 0.66 17 1 C13.7 1 10.4 1 7 1 C7 2.65 7 4.3 7 6 C4.69 6 2.38 6 0 6 C0 4.02 0 2.04 0 0 Z " fill="#D6D7D8" transform="translate(211,158)"/>
<path d="M0 0 C0 0.99 0 1.98 0 3 C-7.59 3 -15.18 3 -23 3 C-23 2.34 -23 1.68 -23 1 C-19.54170353 0.83256252 -16.08335707 0.66618079 -12.625 0.5 C-11.64015625 0.45230469 -10.6553125 0.40460938 -9.640625 0.35546875 C-8.69960937 0.31035156 -7.75859375 0.26523438 -6.7890625 0.21875 C-5.91975098 0.17685547 -5.05043945 0.13496094 -4.15478516 0.09179688 C-2.77077412 0.03283606 -1.38526637 0 0 0 Z " fill="#2C2829" transform="translate(262,185)"/>
<path d="M0 0 C7.59 0.33 15.18 0.66 23 1 C23 1.66 23 2.32 23 3 C15.41 3 7.82 3 0 3 C0 2.01 0 1.02 0 0 Z " fill="#2C2829" transform="translate(208,185)"/>
<path d="M0 0 C0 2.31 0 4.62 0 7 C-2.375 7.125 -2.375 7.125 -5 7 C-5.66 6.34 -6.32 5.68 -7 5 C-6.75 2.4375 -6.75 2.4375 -6 0 C-3.50907189 -1.24546405 -2.58919267 -0.7767578 0 0 Z " fill="#41ACD2" transform="translate(56,129)"/>
<path d="M0 0 C1.32 0.66 2.64 1.32 4 2 C4.042721 3.66611905 4.04063832 5.33382885 4 7 C3 8 3 8 0.4375 8.0625 C-0.366875 8.041875 -1.17125 8.02125 -2 8 C-2.33 6.02 -2.66 4.04 -3 2 C-2.01 1.34 -1.02 0.68 0 0 Z " fill="#47B8DE" transform="translate(3,128)"/>
<path d="M0 0 C2.0625 0.4375 2.0625 0.4375 4 1 C4 2.65 4 4.3 4 6 C3.195625 6.12375 2.39125 6.2475 1.5625 6.375 C0.2940625 6.684375 0.2940625 6.684375 -1 7 C-1.33 7.66 -1.66 8.32 -2 9 C-2.99 8.01 -3.98 7.02 -5 6 C-4.01 5.67 -3.02 5.34 -2 5 C-1.33820153 3.01954441 -1.33820153 3.01954441 -1 1 C-0.67 0.67 -0.34 0.34 0 0 Z " fill="#C17930" transform="translate(49,119)"/>
<path d="M0 0 C2.125 0.375 2.125 0.375 4 1 C4 3.31 4 5.62 4 8 C2.33388095 8.042721 0.66617115 8.04063832 -1 8 C-2 7 -2 7 -2.1875 4.5625 C-2 2 -2 2 0 0 Z " fill="#4B7AC9" transform="translate(27,111)"/>
<path d="M0 0 C2.625 0.375 2.625 0.375 5 1 C5.33 2.98 5.66 4.96 6 7 C3.69 7 1.38 7 -1 7 C-1.625 4.625 -1.625 4.625 -2 2 C-1.34 1.34 -0.68 0.68 0 0 Z " fill="#F2AF4E" transform="translate(15,115)"/>
<path d="M0 0 C0.042721 1.66611905 0.04063832 3.33382885 0 5 C-1 6 -1 6 -3.5625 6.0625 C-4.7690625 6.0315625 -4.7690625 6.0315625 -6 6 C-6.33 4.02 -6.66 2.04 -7 0 C-4.3333581 -1.33332095 -2.83319697 -0.67102033 0 0 Z " fill="#45B8E1" transform="translate(44,116)"/>
<path d="M0 0 C2.75 0.25 2.75 0.25 5 1 C5.33 2.65 5.66 4.3 6 6 C4.35 6.33 2.7 6.66 1 7 C1.33 6.01 1.66 5.02 2 4 C1.01 3.34 0.02 2.68 -1 2 C-1.33 2.99 -1.66 3.98 -2 5 C-2.66 4.67 -3.32 4.34 -4 4 C-2.3125 1.9375 -2.3125 1.9375 0 0 Z " fill="#3791B0" transform="translate(21,129)"/>
<path d="M0 0 C1.32 0.33 2.64 0.66 4 1 C4 2.32 4 3.64 4 5 C-1.75 6.125 -1.75 6.125 -4 5 C-4 4.34 -4 3.68 -4 3 C-2.68 3 -1.36 3 0 3 C0 2.01 0 1.02 0 0 Z " fill="#EA8030" transform="translate(47,136)"/>
<path d="M0 0 C-0.66 0.66 -1.32 1.32 -2 2 C-1.34 2 -0.68 2 0 2 C-0.33 2.99 -0.66 3.98 -1 5 C-2.65 5 -4.3 5 -6 5 C-6.33 3.68 -6.66 2.36 -7 1 C-4.53721199 -0.231394 -2.7204945 -0.07159196 0 0 Z " fill="#899246" transform="translate(47,128)"/>
<path d="M0 0 C0.99 0.33 1.98 0.66 3 1 C3 2.65 3 4.3 3 6 C1.0625 6.5625 1.0625 6.5625 -1 7 C-2 6 -2 6 -2.0625 3.4375 C-2.041875 2.633125 -2.02125 1.82875 -2 1 C-1.34 0.67 -0.68 0.34 0 0 Z " fill="#42BDE7" transform="translate(7,119)"/>
<path d="M0 0 C1.98 0.495 1.98 0.495 4 1 C3.67 2.65 3.34 4.3 3 6 C1.68 5.67 0.36 5.34 -1 5 C-0.67 3.35 -0.34 1.7 0 0 Z " fill="#B72F30" transform="translate(34,110)"/>
<path d="M0 0 C0.99 0 1.98 0 3 0 C4 3 4 3 3 6 C1.68 5.67 0.36 5.34 -1 5 C-1 1 -1 1 0 0 Z " fill="#3EA6CA" transform="translate(20,110)"/>
<path d="M0 0 C-0.66 0.66 -1.32 1.32 -2 2 C-2.99 2 -3.98 2 -5 2 C-5.33 2.66 -5.66 3.32 -6 4 C-6.99 3.67 -7.98 3.34 -9 3 C-5.83583464 -0.30799106 -4.50236011 -1.35070803 0 0 Z " fill="#C06928" transform="translate(49,135)"/>
<path d="M0 0 C1.32 0.66 2.64 1.32 4 2 C3.67 2.66 3.34 3.32 3 4 C2.34 4 1.68 4 1 4 C0.67 4.66 0.34 5.32 0 6 C-0.99 5.67 -1.98 5.34 -3 5 C-3 3 -3 3 -1.5 1.375 C-1.005 0.92125 -0.51 0.4675 0 0 Z " fill="#4FCEFB" transform="translate(20,131)"/>
<path d="M0 0 C0 0.66 0 1.32 0 2 C0.99 1.67 1.98 1.34 3 1 C2.67 1.99 2.34 2.98 2 4 C-0.31 3.67 -2.62 3.34 -5 3 C-2.25 0 -2.25 0 0 0 Z " fill="#9F5621" transform="translate(13,138)"/>
</svg>
